<svg viewBox="0 0 20 20" xmlns="http://www.w3.org/2000/svg" class="___1nmhgyp f1w7gpdv fez10in fve0sb9 f1x0m3f5" aria-hidden="true" fill="currentColor"><rect x="5" y="2" width="13" height="16" rx="2" fill="#33C481"></rect><path d="M18 10V6h-6V2H6.75C5.78 2 5 2.78 5 3.75V10h13z" fill="#21A366"></path><path d="M5 10h13v4H5v-4z" fill="#107C41"></path><path d="M18 16v-2h-6v-4H5v6c0 1.1.9 2 2 2h9a2 2 0 002-2z" fill="#185C37"></path><path d="M5 6h7a1 1 0 011 1v7a2 2 0 01-2 2H5V6z" fill="#000" fill-opacity="0.5"></path><rect x="2" y="5" width="10" height="10" rx="1" fill="#107C41"></rect><path d="M9.59 13H8.36l-1.2-2.13a4.24 4.24 0 01-.13-.35H7a28.07 28.07 0 01-.14.36L5.63 13H4.4l1.96-3-1.8-3h1.25l1.04 1.95.1.23.1.24h.02a46.77 46.77 0 01.2-.48L8.4 7h1.16L7.7 9.97 9.59 13z" fill="#fff"></path></svg>
