<svg viewBox="0 0 20 20" xmlns="http://www.w3.org/2000/svg" class="___1nmhgyp f1w7gpdv fez10in fve0sb9 f1x0m3f5" aria-hidden="true" fill="currentColor"><path fill-rule="evenodd" clip-rule="evenodd" d="M4.93 9.56h11.28v-1.8A6.22 6.22 0 004.93 5.86v3.71z" fill="#0364B8"></path><path fill-rule="evenodd" clip-rule="evenodd" d="M7.63 6.61A4.92 4.92 0 005 5.85h-.06A5.1 5.1 0 00.9 13.83h10.93V9.17l-4.2-2.55z" fill="#0078D4"></path><path fill-rule="evenodd" clip-rule="evenodd" d="M16.21 7.77a4.06 4.06 0 00-1.88.32l-2.5 1.07v4.67h7.68a4.15 4.15 0 00-3.3-6.06z" fill="#1490DF"></path><path fill-rule="evenodd" clip-rule="evenodd" d="M15.97 11.68l-1.04-.63-2.38-1.45-.72-.44-1.92.82-3.66 1.56-1.65.7-3.7 1.59A4.97 4.97 0 005 16h10.94c1.54 0 2.89-.88 3.57-2.17l-3.54-2.15z" fill="#28A8EA"></path></svg>
