<svg viewBox="0 0 20 20" xmlns="http://www.w3.org/2000/svg" class="___1nmhgyp f1w7gpdv fez10in fve0sb9 f1x0m3f5" aria-hidden="true" fill="currentColor"><path fill-rule="evenodd" clip-rule="evenodd" d="M11 5.68l6.5 3.48a.95.95 0 010 1.68L11 14.32l-6.5-3.48a.95.95 0 010-1.68L11 5.68z" fill="#0A2767"></path><path d="M5 4c0-1.1.9-2 2-2h8a2 2 0 012 2v12a2 2 0 01-2 2H7a2 2 0 01-2-2V4z" fill="#28A8EA"></path><path d="M17 9V4a2 2 0 00-.27-1H11v6h6z" fill="#50D9FF"></path><path d="M15 2H7a2 2 0 00-1.73 1h11.46A2 2 0 0015 2z" fill="#0364B8"></path><path d="M4 10v6c0 1.1.9 2 2 2h10a2 2 0 002-2v-6c0 .33-.17.66-.5.84L11 14.32l-6.5-3.48A.94.94 0 014 10z" fill="#1490DF"></path><path d="M4 10c0 .33.17.66.5.84l12.67 6.78A2 2 0 0116 18H6a2 2 0 01-2-2v-6z" fill="#28A8EA"></path><path d="M17.82 16.84a2 2 0 01-.65.78l-6.4-3.43.23.13 1.06-.57 5.76 3.09z" fill="#000" fill-opacity="0.1"></path><path d="M4 10.57V10l.24-.44L11 13.18l6.76-3.62.24.44v.57l-7 3.75-7-3.75z" fill="#0A2767" fill-opacity="0.5"></path><path d="M4 6h8a1 1 0 011 1v7a2 2 0 01-2 2H4V6z" fill="#000" fill-opacity="0.5"></path><path d="M2 6a1 1 0 011-1h8a1 1 0 011 1v8a1 1 0 01-1 1H3a1 1 0 01-1-1V6z" fill="#0078D4"></path><path d="M6.97 13.1c-.85 0-1.54-.28-2.07-.84a3.07 3.07 0 01-.79-2.19c0-.95.27-1.72.8-2.3a2.8 2.8 0 012.16-.87c.84 0 1.52.28 2.04.84.52.56.78 1.3.78 2.2 0 .96-.27 1.73-.8 2.3-.53.57-1.24.86-2.12.86zm.02-.9c.56 0 1-.19 1.33-.57.33-.38.5-.92.5-1.6 0-.71-.17-1.26-.49-1.65-.31-.39-.75-.58-1.3-.58s-1 .2-1.34.6c-.33.41-.5.94-.5 1.6 0 .67.17 1.2.5 1.6.33.4.76.6 1.3.6z" fill="#fff"></path></svg>
