<svg viewBox="0 0 20 20" xmlns="http://www.w3.org/2000/svg" class="___1nmhgyp f1w7gpdv fez10in fve0sb9 f1x0m3f5" aria-hidden="true" fill="currentColor"><path d="M10 2a8 8 0 100 16 8 8 0 000-16z" fill="#D35230"></path><path d="M10 2a8 8 0 00-8 8h8V2z" fill="#ED6C47"></path><path d="M18 10a8 8 0 00-8-8v8h8z" fill="#FF8F6B"></path><path fill-rule="evenodd" clip-rule="evenodd" d="M4.7 16H10a2 2 0 002-2V7a1 1 0 00-1-1H3.07a7.96 7.96 0 001.64 10z" fill="#000" fill-opacity="0.5"></path><rect x="1" y="5" width="10" height="10" rx="1" fill="#C43E1C"></rect><path d="M5.03 10.92V13H4V7h1.88c.7 0 1.23.16 1.6.48.36.33.55.8.55 1.41 0 .6-.21 1.09-.62 1.47-.42.37-.97.56-1.67.56h-.71zm0-3.08v2.25h.63c.42 0 .74-.1.96-.3.22-.2.33-.48.33-.86 0-.36-.1-.64-.31-.82-.21-.18-.52-.27-.94-.27h-.67z" fill="#fff"></path></svg>
