<svg viewBox="0 0 20 20" xmlns="http://www.w3.org/2000/svg" class="___1nmhgyp f1w7gpdv fez10in fve0sb9 f1x0m3f5" aria-hidden="true" fill="currentColor"><path d="M17 7a2 2 0 100-4 2 2 0 000 4zm-3 1a1 1 0 00-1 1v4a3 3 0 106 0V9a1 1 0 00-1-1h-4z" fill="#5059C9"></path><path d="M11.5 7a2.5 2.5 0 100-5 2.5 2.5 0 000 5zM8 8a1 1 0 00-1 1v4.5a4.5 4.5 0 109 0V9a1 1 0 00-1-1H8z" fill="#7B83EB"></path><path d="M12.9 6.57A2.49 2.49 0 019.5 6H12a1 1 0 01.9.57zM13 8H8a1 1 0 00-1 1v4.5c0 .93.28 1.79.76 2.5H11a2 2 0 002-2V8z" fill="#000" fill-opacity="0.5"></path><path d="M2 6a1 1 0 011-1h8a1 1 0 011 1v8a1 1 0 01-1 1H3a1 1 0 01-1-1V6z" fill="#4B53BC"></path><path d="M9.23 7.87H7.51V13H6.49V7.87H4.77V7h4.46v.87z" fill="#fff"></path></svg>
