<svg viewBox="0 0 20 20" xmlns="http://www.w3.org/2000/svg" class="___1nmhgyp f1w7gpdv fez10in fve0sb9 f1x0m3f5" aria-hidden="true" fill="currentColor"><rect x="5" y="2" width="13" height="16" rx="2" fill="#41A5EE"></rect><path d="M5 6h13v4H5V6z" fill="#2B7CD3"></path><path d="M5 10h13v4H5v-4z" fill="#185ABD"></path><path d="M5 14h13v2a2 2 0 01-2 2H7a2 2 0 01-2-2v-2z" fill="#103F91"></path><path d="M5 6h7a1 1 0 011 1v7a2 2 0 01-2 2H5V6z" fill="#000" fill-opacity="0.5"></path><rect x="2" y="5" width="10" height="10" rx="1" fill="#185ABD"></rect><path d="M11.06 7l-1.64 6H8.26L7.15 8.88a3.28 3.28 0 01-.1-.64h-.02a3.83 3.83 0 01-.1.64L5.78 13H4.61L2.94 7h1.12l1.06 4.3a5.45 5.45 0 01.1.64h.01a3.52 3.52 0 01.13-.65L6.56 7h1.07l1.13 4.33a3.08 3.08 0 01.1.6h.01a2.95 2.95 0 01.1-.62L10 7h1.06z" fill="#fff"></path></svg>
